<?xml version="1.0" encoding="UTF-8" standalone="no"?>
<!DOCTYPE svg PUBLIC "-//W3C//DTD SVG 1.1//EN"
 "http://www.w3.org/Graphics/SVG/1.1/DTD/svg11.dtd">
<!-- Generated by graphviz version 2.38.0 (20140413.2041)
 -->
<!-- Title: WatorProjectSFML.cpp Pages: 1 -->
<svg width="516pt" height="84pt"
 viewBox="0.00 0.00 516.00 84.00" xmlns="http://www.w3.org/2000/svg" xmlns:xlink="http://www.w3.org/1999/xlink">
<g id="graph0" class="graph" transform="scale(1 1) rotate(0) translate(4 80)">
<title>WatorProjectSFML.cpp</title>
<polygon fill="white" stroke="none" points="-4,4 -4,-80 512,-80 512,4 -4,4"/>
<!-- Node1 -->
<g id="node1" class="node"><title>Node1</title>
<polygon fill="#bfbfbf" stroke="black" points="156.5,-56.5 156.5,-75.5 275.5,-75.5 275.5,-56.5 156.5,-56.5"/>
<text text-anchor="middle" x="216" y="-63.5" font-family="Helvetica,sans-Serif" font-size="10.00">WatorProjectSFML.cpp</text>
</g>
<!-- Node2 -->
<g id="node2" class="node"><title>Node2</title>
<polygon fill="white" stroke="#bfbfbf" points="0,-0.5 0,-19.5 104,-19.5 104,-0.5 0,-0.5"/>
<text text-anchor="middle" x="52" y="-7.5" font-family="Helvetica,sans-Serif" font-size="10.00">SFML/Graphics.hpp</text>
</g>
<!-- Node1&#45;&gt;Node2 -->
<g id="edge1" class="edge"><title>Node1&#45;&gt;Node2</title>
<path fill="none" stroke="midnightblue" d="M190.014,-56.4435C162.304,-47.3196 118.248,-32.8133 87.3843,-22.6509"/>
<polygon fill="midnightblue" stroke="midnightblue" points="88.4577,-19.3196 77.8647,-19.5164 86.2684,-25.9684 88.4577,-19.3196"/>
</g>
<!-- Node3 -->
<g id="node3" class="node"><title>Node3</title>
<polygon fill="white" stroke="#bfbfbf" points="122,-0.5 122,-19.5 176,-19.5 176,-0.5 122,-0.5"/>
<text text-anchor="middle" x="149" y="-7.5" font-family="Helvetica,sans-Serif" font-size="10.00">iostream</text>
</g>
<!-- Node1&#45;&gt;Node3 -->
<g id="edge2" class="edge"><title>Node1&#45;&gt;Node3</title>
<path fill="none" stroke="midnightblue" d="M205.235,-56.324C195.234,-48.2631 180.113,-36.0765 168.07,-26.3695"/>
<polygon fill="midnightblue" stroke="midnightblue" points="169.943,-23.3841 159.961,-19.8339 165.55,-28.8343 169.943,-23.3841"/>
</g>
<!-- Node4 -->
<g id="node4" class="node"><title>Node4</title>
<polygon fill="white" stroke="#bfbfbf" points="194,-0.5 194,-19.5 238,-19.5 238,-0.5 194,-0.5"/>
<text text-anchor="middle" x="216" y="-7.5" font-family="Helvetica,sans-Serif" font-size="10.00">thread</text>
</g>
<!-- Node1&#45;&gt;Node4 -->
<g id="edge3" class="edge"><title>Node1&#45;&gt;Node4</title>
<path fill="none" stroke="midnightblue" d="M216,-56.083C216,-49.0059 216,-38.8611 216,-29.9865"/>
<polygon fill="midnightblue" stroke="midnightblue" points="219.5,-29.751 216,-19.7511 212.5,-29.7511 219.5,-29.751"/>
</g>
<!-- Node5 -->
<g id="node5" class="node"><title>Node5</title>
<polygon fill="white" stroke="#bfbfbf" points="256.5,-0.5 256.5,-19.5 351.5,-19.5 351.5,-0.5 256.5,-0.5"/>
<text text-anchor="middle" x="304" y="-7.5" font-family="Helvetica,sans-Serif" font-size="10.00">boost/random.hpp</text>
</g>
<!-- Node1&#45;&gt;Node5 -->
<g id="edge4" class="edge"><title>Node1&#45;&gt;Node5</title>
<path fill="none" stroke="midnightblue" d="M230.139,-56.324C243.866,-47.9002 264.936,-34.9709 281.064,-25.0741"/>
<polygon fill="midnightblue" stroke="midnightblue" points="283.204,-27.8678 289.896,-19.6545 279.543,-21.9016 283.204,-27.8678"/>
</g>
<!-- Node6 -->
<g id="node6" class="node"><title>Node6</title>
<polygon fill="white" stroke="#bfbfbf" points="370,-0.5 370,-19.5 508,-19.5 508,-0.5 370,-0.5"/>
<text text-anchor="middle" x="439" y="-7.5" font-family="Helvetica,sans-Serif" font-size="10.00">boost/generator_iterator.hpp</text>
</g>
<!-- Node1&#45;&gt;Node6 -->
<g id="edge5" class="edge"><title>Node1&#45;&gt;Node6</title>
<path fill="none" stroke="midnightblue" d="M251.335,-56.4435C289.911,-47.1024 351.785,-32.1194 393.853,-21.9326"/>
<polygon fill="midnightblue" stroke="midnightblue" points="394.935,-25.2717 403.83,-19.5164 393.287,-18.4683 394.935,-25.2717"/>
</g>
</g>
</svg>
